<svg width="32" height="32" viewBox="0 0 32 32" fill="none" xmlns="http://www.w3.org/2000/svg">
<g clip-path="url(#clip0_1403_479)">
<path d="M19.063 0.843104C27.4424 2.54639 32.8545 10.72 31.1512 19.0994C29.4479 27.4788 21.2743 32.8909 12.8949 31.1876C4.51548 29.4843 -0.89658 21.3107 0.806704 12.9313C2.50999 4.55188 10.6836 -0.860181 19.063 0.843104Z" stroke="white"/>
<path d="M10.8232 16.2024H20.1679L16.5869 19.7735L17.0613 20.248L21.2168 16.1025C21.2817 16.0376 21.3167 15.9527 21.3167 15.8678C21.3167 15.7829 21.2817 15.6929 21.2168 15.628L17.0613 11.4875L16.5869 11.962L20.1679 15.5331H10.8232C10.6384 15.5331 10.4885 15.683 10.4885 15.8678C10.4885 16.0526 10.6384 16.2024 10.8232 16.2024Z" fill="white"/>
</g>
<defs>
<clipPath id="clip0_1403_479">
<rect width="32" height="32" fill="white"/>
</clipPath>
</defs>
</svg>
