<svg width="10" height="10" viewBox="0 0 10 10" fill="none" xmlns="http://www.w3.org/2000/svg">
<path d="M8.78765 4.20949H5.79059V1.21244C5.79059 0.77586 5.43663 0.421875 5.00005 0.421875C4.56347 0.421875 4.20948 0.77586 4.20948 1.21244V4.20949H1.21245C0.775873 4.20949 0.421875 4.56347 0.421875 5.00005C0.421875 5.43663 0.775873 5.79061 1.21245 5.79061H4.20948V8.78766C4.20948 9.22424 4.56347 9.57822 5.00005 9.57822C5.43663 9.57822 5.79059 9.22424 5.79059 8.78766V5.79061H8.78765C9.22423 5.79061 9.57823 5.43663 9.57823 5.00005C9.57823 4.56347 9.22423 4.20949 8.78765 4.20949Z" fill="white"/>
</svg>
