<svg width="196" height="69" viewBox="0 0 196 69" fill="none" xmlns="http://www.w3.org/2000/svg">
<g clip-path="url(#clip0_1391_203)">
<path d="M174.97 64.7523L179.08 58.2804H177.737L174.373 63.5817L171.009 58.2804H169.716L173.793 64.769V68.2474H174.953V64.7523H174.97ZM163.601 62.7789V63.8492H167.96C167.728 65.856 166.269 67.3444 164.148 67.3444C161.911 67.3444 160.154 65.555 160.154 63.2639C160.154 60.9728 161.878 59.1834 164.082 59.1834C165.656 59.1834 166.999 59.9025 167.695 61.3407L168.739 60.9728C168.026 59.15 166.236 58.0964 164.082 58.0964C161.215 58.0964 158.961 60.3708 158.961 63.2639C158.961 66.157 161.215 68.4314 164.098 68.4314C166.982 68.4314 169.054 66.157 169.054 63.2639C169.054 63.1134 169.054 62.9462 169.054 62.7622H163.585L163.601 62.7789ZM152.117 67.3276C149.913 67.3276 148.189 65.5717 148.189 63.2639C148.189 60.9561 149.913 59.1834 152.117 59.1834C154.321 59.1834 156.044 60.9728 156.044 63.2639C156.044 65.555 154.321 67.3276 152.117 67.3276ZM152.117 58.0964C149.25 58.0964 146.996 60.3875 146.996 63.2639C146.996 66.1403 149.233 68.4314 152.117 68.4314C155 68.4314 157.221 66.157 157.221 63.2639C157.221 60.3708 154.984 58.0964 152.117 58.0964ZM145.902 67.1771H140.251V58.2804H139.091V68.2474H145.919V67.1771H145.902ZM131.733 67.3276C129.529 67.3276 127.805 65.5717 127.805 63.2639C127.805 60.9561 129.529 59.1834 131.733 59.1834C133.937 59.1834 135.66 60.9728 135.66 63.2639C135.66 65.555 133.937 67.3276 131.733 67.3276ZM131.733 58.0964C128.866 58.0964 126.612 60.3875 126.612 63.2639C126.612 66.1403 128.849 68.4314 131.733 68.4314C134.616 68.4314 136.837 66.157 136.837 63.2639C136.837 60.3708 134.6 58.0964 131.733 58.0964ZM124.375 58.2971H123.215V66.2908L116.752 58.2971H115.757V68.2642H116.917V60.3541L123.38 68.2642H124.375V58.2971ZM113.006 58.2971H111.846V62.712H105.913V58.2971H104.753V68.2642H105.913V63.7656H111.846V68.2642H113.006V58.2971ZM97.7929 67.3611C95.5888 67.3611 93.8487 65.5717 93.8487 63.2806C93.8487 60.9896 95.5888 59.2002 97.7929 59.2002C99.4998 59.2002 100.875 60.1199 101.372 61.7254L102.499 61.3909C101.903 59.3841 100.063 58.0964 97.7929 58.0964C94.9259 58.0964 92.6721 60.3708 92.6721 63.2639C92.6721 66.157 94.9259 68.4314 97.7929 68.4314C100.063 68.4314 101.886 67.1437 102.499 65.0533L101.372 64.7857C100.859 66.4246 99.4998 67.3276 97.7929 67.3276M90.9651 67.1604H84.9162V63.7489H90.5177V62.6953H84.9162V59.3172H90.9485V58.2637H83.7562V68.2307H90.9651V67.1604ZM81.9498 59.3172V58.2637H73.4482V59.3172H77.1107V68.2307H78.2873V59.3172H81.9498Z" fill="white"/>
<path d="M120.812 44.4503C118.707 44.4503 117.298 45.5875 117.298 47.31C117.298 48.8987 118.409 49.5676 119.668 49.8519L121.889 50.3369C122.999 50.5877 123.496 50.9557 123.496 51.8922C123.496 52.9959 122.601 53.7484 121.093 53.7484C119.585 53.7484 118.425 52.9624 118.21 51.5577L116.983 51.8085C117.215 53.6983 118.889 54.7853 120.994 54.7853C123.198 54.7853 124.656 53.6481 124.656 51.8253C124.656 50.2366 123.546 49.5342 122.171 49.2332L120.016 48.7482C119.088 48.5475 118.525 48.1461 118.525 47.2598C118.525 46.1895 119.436 45.4537 120.762 45.4537C122.088 45.4537 123.099 46.223 123.331 47.4271L124.491 47.1595C124.159 45.5206 122.767 44.4169 120.795 44.4169M107.67 53.4976V45.6544H109.758C112.526 45.6544 114.067 47.3602 114.067 49.5843C114.067 51.8085 112.526 53.4976 109.758 53.4976H107.67ZM106.51 44.6008V54.5679H109.775C113.238 54.5679 115.243 52.3938 115.243 49.5843C115.243 46.7748 113.238 44.6008 109.775 44.6008H106.51ZM103.775 44.6008H102.615V54.5679H103.775V44.6008ZM99.9803 44.6008H98.8203V50.2031C98.8203 52.2768 97.6436 53.6314 95.8704 53.6314C94.0972 53.6314 92.8708 52.2768 92.8708 50.2031V44.6008H91.7108V50.2031C91.7108 52.929 93.368 54.7518 95.8704 54.7518C98.3728 54.7518 99.9803 52.929 99.9803 50.2031V44.6008ZM90.0204 53.4976H84.3693V44.6008H83.2092V54.5679H90.037V53.4976H90.0204ZM75.5197 45.6544H81.436V44.6008H74.3596V54.5679H75.5197V50.2031H80.9057V49.1495H75.5197V45.6711V45.6544Z" fill="white"/>
<path d="M186.421 33.413L177.986 20.9207L172.335 27.794V33.3963H164.43V0.735822H172.335V16.8737L185.692 0.735822H194.658L183.107 14.7332L196 33.413H186.421ZM159.723 26.4896H142.621V20.3354H158.199V13.7967H142.621V7.64251H159.591V0.735822H134.716V33.413H159.723V26.4896ZM120.812 7.75957V33.413H112.956V7.74285H102.549V0.735822H131.202V7.74285H120.795L120.812 7.75957ZM93.4012 11.5223C93.4012 13.9137 91.5783 15.469 88.7444 15.469H81.2703V7.60907H88.7444C91.5783 7.60907 93.4012 9.16432 93.4012 11.5223ZM101.157 11.422C101.157 5.03369 96.5665 0.735822 89.6062 0.735822H73.3653V33.413H81.2703V22.1917H83.5739L93.2521 33.413H102.781L92.7217 21.8071C97.8923 20.6365 101.157 16.7901 101.157 11.422ZM54.1084 34.015L60.0081 22.0914C60.787 20.6532 61.2345 18.9809 61.2345 17.1246C61.2345 11.5056 57.2571 7.35822 52.0369 7.35822C46.8166 7.35822 42.8393 11.5056 42.8393 17.1246C42.8393 18.9809 43.2867 20.6699 44.0656 22.0914L49.9653 34.015C41.3809 33.0284 34.9177 25.9377 34.9177 17.1246C34.9343 7.5589 42.4581 0 52.0369 0C61.6156 0 69.1394 7.5589 69.1394 17.1246C69.1394 25.9377 62.6763 33.0284 54.1084 34.015ZM30.6587 0.735822H22.8034V20.2351L6.56261 0.735822H0V33.413H7.90496V14.4823L24.1623 33.413H30.6752V0.735822H30.6587Z" fill="white"/>
<path d="M42.8394 59.2336C42.8394 57.3773 43.2868 55.6883 44.0657 54.2668L52.037 38.1791L60.0082 54.2668C60.7871 55.705 61.2346 57.3773 61.2346 59.2336C61.2346 64.8526 57.2572 69 52.037 69C46.8167 69 42.8394 64.8526 42.8394 59.2336Z" fill="#FBC42D"/>
</g>
<defs>
<clipPath id="clip0_1391_203">
<rect width="196" height="69" fill="white"/>
</clipPath>
</defs>
</svg>
